<svg width="93" height="93" viewBox="0 0 93 93" fill="none" xmlns="http://www.w3.org/2000/svg">
<g clip-path="url(#clip0_2135_1366)">
<path d="M54.8423 63.2484C64.1271 58.5971 67.8834 47.2997 63.2321 38.0149C58.5809 28.7301 47.2835 24.9738 37.9987 29.6251C28.7138 34.2763 24.9576 45.5737 29.6088 54.8585C34.2601 64.1433 45.5575 67.8996 54.8423 63.2484Z" fill="#F8CA4D"/>
<path d="M46.4253 20.5178C45.2004 20.5178 44.1592 19.5378 44.1592 18.2516V2.26614C44.1592 1.0412 45.1391 0 46.4253 0C47.6503 0 48.6915 0.979954 48.6915 2.26614V18.3129C48.6915 19.5378 47.7115 20.5178 46.4253 20.5178Z" fill="#F8CA4D"/>
<path d="M46.4253 92.8505C45.2004 92.8505 44.1592 91.8706 44.1592 90.5844V74.5376C44.1592 73.3127 45.1391 72.2715 46.4253 72.2715C47.6503 72.2715 48.6915 73.2514 48.6915 74.5376V90.6456C48.6915 91.8706 47.7115 92.8505 46.4253 92.8505Z" fill="#F8CA4D"/>
<path d="M64.7383 28.1128C63.8808 27.2553 63.8808 25.7854 64.7383 24.9279L76.069 13.5972C76.9265 12.7397 78.3964 12.7397 79.2539 13.5972C80.1113 14.4547 80.1113 15.9246 79.2539 16.782L67.9232 28.1128C67.0657 28.9702 65.657 28.9702 64.7383 28.1128Z" fill="#F8CA4D"/>
<path d="M13.5972 79.2534C12.7397 78.3959 12.7397 76.926 13.5972 76.0685L24.9279 64.7378C25.7854 63.8804 27.2553 63.8804 28.1128 64.7378C28.9702 65.5953 28.9702 67.0652 28.1128 67.9227L16.782 79.2534C15.9246 80.1721 14.4547 80.1721 13.5972 79.2534Z" fill="#F8CA4D"/>
<path d="M72.333 46.4253C72.333 45.2004 73.313 44.1592 74.5992 44.1592H90.6459C91.8708 44.1592 92.912 45.1391 92.912 46.4253C92.912 47.6503 91.9321 48.6915 90.6459 48.6915H74.5992C73.3742 48.6915 72.333 47.7115 72.333 46.4253Z" fill="#F8CA4D"/>
<path d="M0 46.4253C0 45.2004 0.979954 44.1592 2.26614 44.1592H18.3129C19.5378 44.1592 20.579 45.1391 20.579 46.4253C20.579 47.6503 19.5991 48.6915 18.3129 48.6915H2.26614C0.979954 48.6915 0 47.7115 0 46.4253Z" fill="#F8CA4D"/>
<path d="M64.7383 64.7378C65.5958 63.8804 67.0657 63.8804 67.9232 64.7378L79.2539 76.0685C80.1113 76.926 80.1113 78.3959 79.2539 79.2534C78.3964 80.1109 76.9265 80.1109 76.069 79.2534L64.7383 67.9227C63.8808 67.0652 63.8808 65.6565 64.7383 64.7378Z" fill="#F8CA4D"/>
<path d="M13.5972 13.5972C14.4547 12.7397 15.9246 12.7397 16.782 13.5972L28.1128 24.9279C28.9702 25.7854 28.9702 27.2553 28.1128 28.1128C27.2553 28.9702 25.7854 28.9702 24.9279 28.1128L13.5972 16.782C12.7397 15.9246 12.7397 14.4547 13.5972 13.5972Z" fill="#F8CA4D"/>
</g>
<defs>
<clipPath id="clip0_2135_1366">
<rect width="92.8507" height="92.8507" fill="white"/>
</clipPath>
</defs>
</svg>
