<svg width="93" height="93" viewBox="0 0 93 93" fill="none" xmlns="http://www.w3.org/2000/svg">
<g clip-path="url(#clip0_2135_1381)">
<path d="M41.0033 44.2161C42.0663 37.7207 37.6624 31.5934 31.1669 30.5305C24.6715 29.4675 18.5442 33.8715 17.4813 40.3669C16.4183 46.8623 20.8222 52.9896 27.3177 54.0525C33.8131 55.1155 39.9404 50.7116 41.0033 44.2161Z" fill="#FFDC7B"/>
<path d="M29.2593 25.8229C28.4801 25.8229 27.8384 25.1812 27.8384 24.402V14.2266C27.8384 13.4474 28.4801 12.8057 29.2593 12.8057C30.0385 12.8057 30.6802 13.4474 30.6802 14.2266V24.402C30.6802 25.1812 30.0385 25.8229 29.2593 25.8229Z" fill="#FFDC7B"/>
<path d="M29.2593 71.7955C28.4801 71.7955 27.8384 71.1538 27.8384 70.3746V60.1992C27.8384 59.42 28.4801 58.7783 29.2593 58.7783C30.0385 58.7783 30.6802 59.42 30.6802 60.1992V70.3746C30.6802 71.1538 30.0385 71.7955 29.2593 71.7955Z" fill="#FFDC7B"/>
<path d="M40.9013 30.682C40.3513 30.132 40.3513 29.2153 40.9013 28.6653L48.0974 21.4692C48.6474 20.9191 49.5641 20.9191 50.1142 21.4692C50.6642 22.0192 50.6642 22.9359 50.1142 23.4859L42.918 30.682C42.368 31.2321 41.4513 31.2321 40.9013 30.682Z" fill="#FFDC7B"/>
<path d="M8.40422 63.1332C7.85419 62.5832 7.85419 61.6665 8.40422 61.1165L15.6003 53.9203C16.1504 53.3703 17.0671 53.3703 17.6171 53.9203C18.1671 54.4704 18.1671 55.3871 17.6171 55.9371L10.421 63.1332C9.87094 63.7291 8.95424 63.7291 8.40422 63.1332Z" fill="#FFDC7B"/>
<path d="M45.7139 42.2783C45.7139 41.4991 46.3556 40.8574 47.1348 40.8574H57.3102C58.0894 40.8574 58.7311 41.4991 58.7311 42.2783C58.7311 43.0575 58.0894 43.6992 57.3102 43.6992H47.1348C46.3556 43.745 45.7139 43.1033 45.7139 42.2783Z" fill="#FFDC7B"/>
<path d="M-0.212891 42.2783C-0.212891 41.4991 0.428791 40.8574 1.20799 40.8574H11.3834C12.1626 40.8574 12.8043 41.4991 12.8043 42.2783C12.8043 43.0575 12.1626 43.6992 11.3834 43.6992H1.20799C0.428791 43.745 -0.212891 43.1033 -0.212891 42.2783Z" fill="#FFDC7B"/>
<path d="M40.9013 53.9194C41.4513 53.3693 42.368 53.3693 42.918 53.9194L50.1142 61.1155C50.6642 61.6655 50.6642 62.5822 50.1142 63.1322C49.5641 63.6823 48.6474 63.6823 48.0974 63.1322L40.9013 55.9361C40.3513 55.3861 40.3513 54.5152 40.9013 53.9194Z" fill="#FFDC7B"/>
<path d="M8.40422 21.4223C8.95424 20.8723 9.87094 20.8723 10.421 21.4223L17.6171 28.6184C18.1671 29.1684 18.1671 30.0851 17.6171 30.6352C17.0671 31.1852 16.1504 31.1852 15.6003 30.6352L8.40422 23.4849C7.85419 22.889 7.85419 22.0181 8.40422 21.4223Z" fill="#FFDC7B"/>
<path d="M83.8947 63.1329C83.8489 63.1329 83.8031 63.1329 83.8031 63.1329C84.4906 61.4828 84.9031 59.6952 84.9031 57.816C84.9031 50.3907 78.8987 44.3863 71.4734 44.3863C68.8608 44.3863 66.3857 45.1655 64.3231 46.4488C61.5272 39.6194 54.8352 34.8525 46.9974 34.8525C36.6386 34.8525 28.2966 43.2404 28.2966 53.5533C28.2966 54.3325 28.3425 55.1117 28.4341 55.8451C28.3883 55.8451 28.3425 55.8451 28.2966 55.8451C21.3755 55.8451 15.7378 61.4828 15.7378 68.4039C15.7378 75.325 21.3755 80.9627 28.2966 80.9627H83.8947C88.7991 80.9627 92.7868 76.9751 92.7868 72.0707C92.8326 67.1205 88.8449 63.1329 83.8947 63.1329Z" fill="white"/>
</g>
<defs>
<clipPath id="clip0_2135_1381">
<rect width="92.8507" height="92.8507" fill="white"/>
</clipPath>
</defs>
</svg>
