<svg width="93" height="93" viewBox="0 0 93 93" fill="none" xmlns="http://www.w3.org/2000/svg">
<g clip-path="url(#clip0_717_1369)">
<path d="M49.258 45.5674C51.067 34.5131 43.5721 24.0853 32.5177 22.2763C21.4634 20.4673 11.0356 27.9622 9.22661 39.0165C7.41764 50.0709 14.9125 60.4987 25.9669 62.3077C37.0212 64.1166 47.449 56.6218 49.258 45.5674Z" fill="#B7CBE5"/>
<path d="M83.8947 63.1329C83.8489 63.1329 83.8031 63.1329 83.8031 63.1329C84.4906 61.4828 84.9031 59.6952 84.9031 57.816C84.9031 50.3907 78.8987 44.3863 71.4734 44.3863C68.8608 44.3863 66.3857 45.1655 64.3231 46.4488C61.5272 39.6194 54.8352 34.8525 46.9974 34.8525C36.6386 34.8525 28.2966 43.2404 28.2966 53.5533C28.2966 54.3325 28.3425 55.1117 28.4341 55.8451C28.3883 55.8451 28.3425 55.8451 28.2966 55.8451C21.3755 55.8451 15.7378 61.4828 15.7378 68.4039C15.7378 75.325 21.3755 80.9627 28.2966 80.9627H83.8947C88.7991 80.9627 92.7868 76.9751 92.7868 72.0707C92.8326 67.1205 88.8449 63.1329 83.8947 63.1329Z" fill="white"/>
</g>
<defs>
<clipPath id="clip0_717_1369">
<rect width="92.8507" height="92.8507" fill="white"/>
</clipPath>
</defs>
</svg>
