<svg width="93" height="93" viewBox="0 0 93 93" fill="none" xmlns="http://www.w3.org/2000/svg">
<g clip-path="url(#clip0_717_1386)">
<path d="M82.0543 52.9398C81.9989 52.9398 81.9436 52.9398 81.9436 52.9398C82.7735 50.9481 83.2714 48.7904 83.2714 46.5221C83.2714 37.5596 76.0239 30.3121 67.0614 30.3121C63.9079 30.3121 60.9204 31.2526 58.4308 32.8017C55.056 24.5584 46.9787 18.8047 37.5182 18.8047C25.015 18.8047 14.9459 28.929 14.9459 41.377C14.9459 42.3175 15.0013 43.258 15.1119 44.1432C15.0566 44.1432 15.0013 44.1432 14.9459 44.1432C6.59199 44.1432 -0.212891 50.9481 -0.212891 59.302C-0.212891 67.656 6.59199 74.4609 14.9459 74.4609H82.0543C87.974 74.4609 92.7872 69.6477 92.7872 63.728C92.8425 57.753 88.0293 52.9398 82.0543 52.9398Z" fill="white"/>
</g>
<defs>
<clipPath id="clip0_717_1386">
<rect width="92.8507" height="92.8507" fill="white"/>
</clipPath>
</defs>
</svg>
