<svg width="93" height="93" viewBox="0 0 93 93" fill="none" xmlns="http://www.w3.org/2000/svg">
<g clip-path="url(#clip0_2135_1401)">
<path d="M85.2741 43.8264C85.2287 43.8264 85.2287 43.8264 85.1834 43.8264C85.7729 42.466 86.0903 41.015 86.0903 39.4734C86.0903 33.3973 81.1478 28.4548 75.0717 28.4548C72.8952 28.4548 70.9001 29.0896 69.2224 30.1325C66.9099 24.5553 61.4233 20.6104 55.0298 20.6104C46.5505 20.6104 39.6583 27.5026 39.6583 35.9819C39.6583 36.6167 39.7036 37.2515 39.7943 37.8863C39.749 37.8863 39.7036 37.8863 39.6583 37.8863C33.9903 37.8863 29.3652 42.5114 29.3652 48.1794C29.3652 53.8473 33.9903 58.4724 39.6583 58.4724H85.2741C89.3097 58.4724 92.5744 55.2076 92.5744 51.1721C92.5744 47.1365 89.3097 43.8264 85.2741 43.8264Z" fill="#B9D7FF"/>
<path d="M67.0004 53.439C66.9551 53.439 66.9097 53.439 66.9097 53.439C67.5899 51.8066 67.998 50.0382 67.998 48.1791C67.998 40.8334 62.0579 34.8934 54.7122 34.8934C52.1276 34.8934 49.6791 35.6643 47.6386 36.9339C44.8726 30.1777 38.2525 25.4619 30.4987 25.4619C20.251 25.4619 11.9984 33.7598 11.9984 43.9622C11.9984 44.733 12.0438 45.5039 12.1344 46.2294C12.0891 46.2294 12.0438 46.2294 11.9984 46.2294C5.15151 46.2294 -0.425781 51.8066 -0.425781 58.6535C-0.425781 65.5005 5.15151 71.0777 11.9984 71.0777H67.0004C71.8522 71.0777 75.7971 67.1328 75.7971 62.2811C75.7971 57.3839 71.8522 53.439 67.0004 53.439Z" fill="white"/>
</g>
<defs>
<clipPath id="clip0_2135_1401">
<rect width="92.8507" height="92.8507" fill="white"/>
</clipPath>
</defs>
</svg>
