<svg width="93" height="93" viewBox="0 0 93 93" fill="none" xmlns="http://www.w3.org/2000/svg">
<g clip-path="url(#clip0_2135_1405)">
<path d="M82.0542 36.9397C81.9989 36.9397 81.9436 36.9397 81.9436 36.9397C82.7734 34.9481 83.2713 32.7904 83.2713 30.5221C83.2713 21.5596 76.0239 14.3121 67.0613 14.3121C63.9079 14.3121 60.9204 15.2526 58.4308 16.8017C55.056 8.55842 46.9787 2.80469 37.5182 2.80469C25.0149 2.80469 14.9459 12.929 14.9459 25.377C14.9459 26.3175 15.0013 27.258 15.1119 28.1432C15.0566 28.1432 15.0013 28.1432 14.9459 28.1432C6.59199 28.1432 -0.212891 34.9481 -0.212891 43.302C-0.212891 51.656 6.59199 58.4608 14.9459 58.4608H82.0542C87.9739 58.4608 92.7871 53.6476 92.7871 47.728C92.7871 41.7529 87.9739 36.9397 82.0542 36.9397Z" fill="white"/>
<path d="M29.5516 84.9054C27.7259 88.7227 23.1893 90.2718 19.3719 88.5014C15.5546 86.6757 14.0055 82.1391 15.7759 78.3218C17.6015 74.5044 29.3856 67.5889 29.3856 67.5889C29.3856 67.5889 31.3773 81.088 29.5516 84.9054Z" fill="#B9D7FF"/>
<path d="M48.5277 84.9054C46.702 88.7227 42.1654 90.2718 38.348 88.5014C34.5306 86.6757 32.9816 82.1391 34.7519 78.3218C36.5776 74.5044 48.3617 67.5889 48.3617 67.5889C48.3617 67.5889 50.3534 81.088 48.5277 84.9054Z" fill="#B9D7FF"/>
<path d="M67.7249 84.9054C65.8992 88.7227 61.3626 90.2718 57.5453 88.5014C53.7279 86.6757 52.1788 82.1391 53.9492 78.3218C55.7749 74.5044 67.5589 67.5889 67.5589 67.5889C67.5589 67.5889 69.5506 81.088 67.7249 84.9054Z" fill="#B9D7FF"/>
</g>
<defs>
<clipPath id="clip0_2135_1405">
<rect width="92.8507" height="92.8507" fill="white"/>
</clipPath>
</defs>
</svg>
