<svg width="94" height="87" viewBox="0 0 94 87" fill="none" xmlns="http://www.w3.org/2000/svg">
<path d="M76.2162 31.4105C77.2792 24.915 72.8752 18.7878 66.3798 17.7248C59.8844 16.6619 53.7571 21.0658 52.6942 27.5612C51.6312 34.0567 56.0351 40.1839 62.5306 41.2469C69.026 42.3098 75.1533 37.9059 76.2162 31.4105Z" fill="#FFDC7B"/>
<path d="M64.4722 13.0172C63.693 13.0172 63.0513 12.3755 63.0513 11.5963V1.42089C63.0513 0.641693 63.693 0 64.4722 0C65.2514 0 65.8931 0.641693 65.8931 1.42089V11.5963C65.8931 12.3755 65.2514 13.0172 64.4722 13.0172Z" fill="#FFDC7B"/>
<path d="M64.4722 58.9898C63.693 58.9898 63.0513 58.3482 63.0513 57.569V47.3935C63.0513 46.6143 63.693 45.9727 64.4722 45.9727C65.2514 45.9727 65.8931 46.6143 65.8931 47.3935V57.569C65.8931 58.3482 65.2514 58.9898 64.4722 58.9898Z" fill="#FFDC7B"/>
<path d="M76.1142 17.8754C75.5642 17.3254 75.5642 16.4087 76.1142 15.8586L83.3103 8.66252C83.8603 8.11249 84.777 8.11249 85.3271 8.66252C85.8771 9.21254 85.8771 10.1292 85.3271 10.6793L78.1309 17.8754C77.5809 18.4254 76.6642 18.4254 76.1142 17.8754Z" fill="#FFDC7B"/>
<path d="M43.6171 50.3266C43.0671 49.7765 43.0671 48.8598 43.6171 48.3098L50.8132 41.1137C51.3633 40.5637 52.28 40.5637 52.83 41.1137C53.38 41.6637 53.38 42.5804 52.83 43.1304L45.6339 50.3266C45.0838 50.9224 44.1671 50.9224 43.6171 50.3266Z" fill="#FFDC7B"/>
<path d="M80.9268 29.4717C80.9268 28.6925 81.5685 28.0508 82.3477 28.0508H92.5231C93.3023 28.0508 93.944 28.6925 93.944 29.4717C93.944 30.2509 93.3023 30.8926 92.5231 30.8926H82.3477C81.5685 30.9384 80.9268 30.2967 80.9268 29.4717Z" fill="#FFDC7B"/>
<path d="M35 29.4717C35 28.6925 35.6417 28.0508 36.4209 28.0508H46.5963C47.3755 28.0508 48.0172 28.6925 48.0172 29.4717C48.0172 30.2509 47.3755 30.8926 46.5963 30.8926H36.4209C35.6417 30.9384 35 30.2967 35 29.4717Z" fill="#FFDC7B"/>
<path d="M76.1142 41.1147C76.6642 40.5646 77.5809 40.5646 78.1309 41.1147L85.3271 48.3108C85.8771 48.8608 85.8771 49.7775 85.3271 50.3275C84.777 50.8776 83.8603 50.8776 83.3103 50.3275L76.1142 43.1314C75.5642 42.5814 75.5642 41.7105 76.1142 41.1147Z" fill="#FFDC7B"/>
<path d="M43.6171 8.61759C44.1671 8.06757 45.0838 8.06757 45.6339 8.61759L52.83 15.8137C53.38 16.3637 53.38 17.2804 52.83 17.8305C52.28 18.3805 51.3633 18.3805 50.8132 17.8305L43.6171 10.6802C43.0671 10.0843 43.0671 9.21345 43.6171 8.61759Z" fill="#FFDC7B"/>
<path d="M67.4262 41.8287C67.3808 41.8287 67.3355 41.8287 67.3355 41.8287C68.0156 40.1963 68.4238 38.4279 68.4238 36.5688C68.4238 29.2231 62.4837 23.2831 55.138 23.2831C52.5534 23.2831 50.1049 24.0539 48.0644 25.3235C45.2984 18.5673 38.6782 13.8516 30.9245 13.8516C20.6768 13.8516 12.4242 22.1495 12.4242 32.3518C12.4242 33.1227 12.4695 33.8935 12.5602 34.619C12.5149 34.619 12.4695 34.619 12.4242 34.619C5.57729 34.619 0 40.1963 0 47.0432C0 53.8901 5.57729 59.4674 12.4242 59.4674H67.4262C72.278 59.4674 76.2229 55.5225 76.2229 50.6707C76.2229 45.7736 72.278 41.8287 67.4262 41.8287Z" fill="white"/>
<path d="M29.7645 82.3155C27.9388 86.1329 23.4022 87.682 19.5848 85.9116C15.7674 84.0859 14.2184 79.5493 15.9887 75.7319C17.8144 71.9145 29.5985 64.999 29.5985 64.999C29.5985 64.999 31.5902 78.4981 29.7645 82.3155Z" fill="#B9D7FF"/>
<path d="M48.7405 82.3155C46.9148 86.1329 42.3783 87.682 38.5609 85.9116C34.7435 84.0859 33.1944 79.5493 34.9648 75.7319C36.7905 71.9145 48.5746 64.999 48.5746 64.999C48.5746 64.999 50.5662 78.4981 48.7405 82.3155Z" fill="#B9D7FF"/>
<path d="M67.9378 82.3155C66.1121 86.1329 61.5755 87.682 57.7582 85.9116C53.9408 84.0859 52.3917 79.5493 54.1621 75.7319C55.9878 71.9145 67.7718 64.999 67.7718 64.999C67.7718 64.999 69.7635 78.4981 67.9378 82.3155Z" fill="#B9D7FF"/>
</svg>
