<svg width="87" height="80" viewBox="0 0 87 80" fill="none" xmlns="http://www.w3.org/2000/svg">
<path d="M83.743 21.8834C85.1942 13.015 79.1815 4.64928 70.3131 3.19802C61.4447 1.74676 53.079 7.75953 51.6277 16.6279C50.1765 25.4963 56.1892 33.862 65.0576 35.3133C73.926 36.7645 82.2917 30.7518 83.743 21.8834Z" fill="#B7CBE5"/>
<path d="M67.4262 34.8287C67.3808 34.8287 67.3355 34.8287 67.3355 34.8287C68.0156 33.1963 68.4238 31.4279 68.4238 29.5688C68.4238 22.2231 62.4837 16.2831 55.138 16.2831C52.5534 16.2831 50.1049 17.0539 48.0644 18.3235C45.2984 11.5673 38.6782 6.85156 30.9245 6.85156C20.6768 6.85156 12.4242 15.1495 12.4242 25.3518C12.4242 26.1227 12.4695 26.8935 12.5602 27.619C12.5149 27.619 12.4695 27.619 12.4242 27.619C5.57729 27.619 0 33.1963 0 40.0432C0 46.8901 5.57729 52.4674 12.4242 52.4674H67.4262C72.278 52.4674 76.2229 48.5225 76.2229 43.6707C76.2229 38.7736 72.278 34.8287 67.4262 34.8287Z" fill="white"/>
<path d="M29.7645 75.3155C27.9388 79.1329 23.4022 80.682 19.5848 78.9116C15.7674 77.0859 14.2184 72.5493 15.9887 68.7319C17.8144 64.9145 29.5985 57.999 29.5985 57.999C29.5985 57.999 31.5902 71.4981 29.7645 75.3155Z" fill="#B9D7FF"/>
<path d="M48.7405 75.3155C46.9148 79.1329 42.3783 80.682 38.5609 78.9116C34.7435 77.0859 33.1944 72.5493 34.9648 68.7319C36.7905 64.9145 48.5746 57.999 48.5746 57.999C48.5746 57.999 50.5662 71.4981 48.7405 75.3155Z" fill="#B9D7FF"/>
<path d="M67.9378 75.3155C66.1121 79.1329 61.5755 80.682 57.7582 78.9116C53.9408 77.0859 52.3917 72.5493 54.1621 68.7319C55.9878 64.9145 67.7718 57.999 67.7718 57.999C67.7718 57.999 69.7635 71.4981 67.9378 75.3155Z" fill="#B9D7FF"/>
</svg>
