<svg width="82" height="93" viewBox="0 0 82 93" fill="none" xmlns="http://www.w3.org/2000/svg">
<path d="M72.5183 30.09C72.4696 30.09 72.4208 30.09 72.4208 30.09C73.1523 28.3343 73.5912 26.4324 73.5912 24.4329C73.5912 16.5324 67.2026 10.1438 59.3022 10.1438C56.5224 10.1438 53.8889 10.9729 51.6943 12.3384C48.7194 5.0719 41.5993 0 33.2599 0C22.2383 0 13.3625 8.92459 13.3625 19.8974C13.3625 20.7265 13.4113 21.5556 13.5088 22.3358C13.46 22.3358 13.4113 22.3358 13.3625 22.3358C5.9985 22.3358 0 28.3343 0 35.6983C0 43.0623 5.9985 49.0608 13.3625 49.0608H72.5183C77.7365 49.0608 81.9794 44.818 81.9794 39.5998C81.9794 34.3328 77.7365 30.09 72.5183 30.09Z" fill="#B9D7FF"/>
<path d="M17.7512 72.3719C16.1418 75.7369 12.1428 77.1024 8.7778 75.5418C5.41279 73.9325 4.04728 69.9335 5.60787 66.5685C7.21722 63.2034 17.6049 57.1074 17.6049 57.1074C17.6049 57.1074 19.3605 69.0069 17.7512 72.3719Z" fill="#B9D7FF"/>
<path d="M76.3224 72.3719C74.7131 75.7369 70.7141 77.1024 67.3491 75.5418C63.9841 73.9325 62.6186 69.9335 64.1792 66.5685C65.7885 63.2034 76.1761 57.1074 76.1761 57.1074C76.1761 57.1074 77.9318 69.0069 76.3224 72.3719Z" fill="#B9D7FF"/>
<path d="M35.6981 54.7666L29.6021 73.2985H37.9902L32.5281 92.1231L52.3768 65.5444H42.1355L45.9882 54.7666H35.6981Z" fill="#FFDC7B"/>
</svg>
