<svg width="93" height="93" viewBox="0 0 93 93" fill="none" xmlns="http://www.w3.org/2000/svg">
<g clip-path="url(#clip0_2135_1417)">
<path d="M47.6191 92.8047H44.9551C43.4414 92.8047 42.1699 91.5332 42.1699 90.0195V2.58987C42.1699 1.07619 43.4414 -0.195312 44.9551 -0.195312H47.6191C49.1328 -0.195312 50.4043 1.07619 50.4043 2.58987V90.0195C50.3438 91.5332 49.1328 92.8047 47.6191 92.8047Z" fill="white"/>
<path d="M62.4531 6.58592C63.543 7.67577 63.543 9.43162 62.4531 10.5215L46.3476 26.6269L46.2871 26.5664L46.2266 26.6269L30.1211 10.5215C29.0313 9.43162 29.0313 7.67577 30.1211 6.58592L31.998 4.70898C33.0879 3.61914 34.8438 3.61914 35.9336 4.70898L44.3496 13.125C45.4394 14.2148 47.1953 14.2148 48.2852 13.125L56.7012 4.70898C57.791 3.61914 59.5469 3.61914 60.6367 4.70898L62.4531 6.58592Z" fill="white"/>
<path d="M30.1211 86.0235C29.0313 84.9336 29.0313 83.1778 30.1211 82.0879L46.2266 65.9824L46.2871 66.043L46.3476 65.9824L62.4531 82.0879C63.543 83.1778 63.543 84.9336 62.4531 86.0235L60.5762 87.9004C59.4863 88.9902 57.7305 88.9902 56.6406 87.9004L48.2246 79.5449C47.1348 78.4551 45.3789 78.4551 44.2891 79.5449L35.873 87.961C34.7832 89.0508 33.0273 89.0508 31.9375 87.961L30.1211 86.0235Z" fill="white"/>
<path d="M-0.212891 47.6367V44.9727C-0.212891 43.459 1.0586 42.1875 2.57227 42.1875H90.0019C91.5156 42.1875 92.7871 43.459 92.7871 44.9727V47.6367C92.7871 49.1504 91.5156 50.4219 90.0019 50.4219H2.57227C0.99805 50.4219 -0.212891 49.2109 -0.212891 47.6367Z" fill="white"/>
<path d="M86.0063 62.4707C84.9165 63.5605 83.1606 63.5605 82.0708 62.4707L65.9653 46.3652L66.0259 46.3047L65.9653 46.2441L82.0708 30.1387C83.1606 29.0488 84.9165 29.0488 86.0063 30.1387L87.8833 32.0156C88.9731 33.1055 88.9731 34.8613 87.8833 35.9512L79.4673 44.3672C78.3774 45.457 78.3774 47.2129 79.4673 48.3027L87.8833 56.7187C88.9731 57.8086 88.9731 59.5644 87.8833 60.6543L86.0063 62.4707Z" fill="white"/>
<path d="M6.56837 30.1387C7.65821 29.0488 9.41407 29.0488 10.5039 30.1387L26.6094 46.2441L26.5488 46.3047L26.6094 46.3652L10.5039 62.4707C9.41407 63.5605 7.65821 63.5605 6.56837 62.4707L4.69141 60.5937C3.60157 59.5039 3.60157 57.748 4.69141 56.6582L13.1074 48.2422C14.1973 47.1523 14.1973 45.3965 13.1074 44.3066L4.63086 35.9512C3.54102 34.8613 3.54102 33.1055 4.63086 32.0156L6.56837 30.1387Z" fill="white"/>
<path d="M24.0664 68.5254C22.9766 67.4355 22.9766 65.6797 24.0664 64.5898L64.5723 24.084C65.6621 22.9941 67.4179 22.9941 68.5078 24.084C69.5976 25.1738 69.5976 26.9297 68.5078 28.0195L28.002 68.5254C26.9121 69.6152 25.1562 69.6152 24.0664 68.5254Z" fill="white"/>
<path d="M72.9277 34.1953C72.9277 35.709 71.6562 36.9805 70.1426 36.9805H55.6719V36.9199H55.6113V22.4492C55.6113 20.9356 56.8828 19.6641 58.3965 19.6641C59.9102 19.6641 61.1816 20.9356 61.1816 22.4492V28.6856C61.1816 30.1992 62.4531 31.4707 63.9668 31.4707H70.2031C71.7168 31.4102 72.9277 32.6211 72.9277 34.1953Z" fill="white"/>
<path d="M19.5859 58.4746C19.5859 56.961 20.8574 55.6895 22.3711 55.6895H36.8418V55.75H36.9023V70.2207C36.9023 71.7344 35.6309 73.0059 34.1172 73.0059C32.6035 73.0059 31.332 71.7344 31.332 70.2207V63.9844C31.332 62.4707 30.0605 61.1992 28.5469 61.1992H22.3105C20.7969 61.2598 19.5859 59.9883 19.5859 58.4746Z" fill="white"/>
<path d="M24.0664 24.1445C25.1562 23.0547 26.9121 23.0547 28.002 24.1445L68.5078 64.6504C69.5976 65.7402 69.5976 67.4961 68.5078 68.5859C67.4179 69.6758 65.6621 69.6758 64.5723 68.5859L24.0664 28.0195C22.9766 26.9902 22.9766 25.2344 24.0664 24.1445Z" fill="white"/>
<path d="M58.3965 73.0069C56.8828 73.0069 55.6113 71.7353 55.6113 70.2217V55.751H55.6719V55.6904H70.1426C71.6562 55.6904 72.9277 56.9619 72.9277 58.4756C72.9277 59.9893 71.6562 61.2607 70.1426 61.2607H63.9062C62.3926 61.2607 61.1211 62.5323 61.1211 64.0459V70.2822C61.1816 71.7959 59.9707 73.0069 58.3965 73.0069Z" fill="white"/>
<path d="M34.1172 19.6035C35.6309 19.6035 36.9023 20.875 36.9023 22.3887V36.8594H36.8418V36.9199H22.3711C20.8574 36.9199 19.5859 35.6484 19.5859 34.1348C19.5859 32.6211 20.8574 31.3496 22.3711 31.3496H28.6074C30.1211 31.3496 31.3926 30.0781 31.3926 28.5644V22.3281C31.332 20.875 32.6035 19.6035 34.1172 19.6035Z" fill="white"/>
</g>
<defs>
<clipPath id="clip0_2135_1417">
<rect width="92.8507" height="92.8507" fill="white"/>
</clipPath>
</defs>
</svg>
