<svg width="93" height="93" viewBox="0 0 93 93" fill="none" xmlns="http://www.w3.org/2000/svg">
<g clip-path="url(#clip0_2135_1435)">
<path d="M75.1603 52.0326C75.1096 52.0326 75.0589 52.0326 75.0589 52.0326C75.8192 50.2106 76.2754 48.2367 76.2754 46.1615C76.2754 37.9623 69.6353 31.3321 61.4238 31.3321C58.5346 31.3321 55.7974 32.1925 53.5165 33.6097C50.4245 26.0684 43.024 20.8047 34.3564 20.8047C22.9009 20.8047 13.6757 30.0668 13.6757 41.4546C13.6757 42.315 13.7263 43.1754 13.8277 43.9852C13.777 43.9852 13.7263 43.9852 13.6757 43.9852C6.02175 43.9852 -0.212891 50.2106 -0.212891 57.853C-0.212891 65.4955 6.02175 71.7209 13.6757 71.7209H75.1603C80.5839 71.7209 84.9938 67.3176 84.9938 61.902C84.9938 56.4359 80.5839 52.0326 75.1603 52.0326Z" fill="#B9D7FF"/>
<path fill-rule="evenodd" clip-rule="evenodd" d="M60.8106 46.4789C54.7488 45.3423 49.9592 49.1956 48.3618 51.2722C47.662 52.1819 46.3572 52.3521 45.4474 51.6523C44.5377 50.9525 44.3675 49.6477 45.0673 48.738C47.1825 45.9883 53.3821 40.8572 61.5765 42.3936C64.0248 42.8527 66.6627 43.8287 69.2366 44.867C70.0658 45.2015 70.886 45.5413 71.7003 45.8787C73.4857 46.6184 75.2425 47.3464 77.003 47.9801C79.5515 48.8976 81.8848 49.5304 83.9406 49.6442C85.9596 49.756 87.5787 49.3623 88.8845 48.3579C89.7942 47.658 91.099 47.8282 91.7988 48.738C92.4986 49.6477 92.3284 50.9525 91.4187 51.6523C89.1047 53.4323 86.408 53.9436 83.7109 53.7943C81.0505 53.647 78.2674 52.8529 75.5951 51.8908C73.7399 51.223 71.8301 50.4319 70.0001 49.6738C69.2088 49.346 68.4323 49.0244 67.6817 48.7216C65.1218 47.689 62.8174 46.8551 60.8106 46.4789ZM61.3674 58.4827C55.3056 57.3461 50.5161 61.1994 48.9186 63.276C48.2188 64.1858 46.914 64.356 46.0043 63.6562C45.0946 62.9564 44.9244 61.6516 45.6242 60.7418C47.7393 57.9921 53.9389 52.861 62.1334 54.3975C64.5816 54.8565 67.2196 55.8326 69.7935 56.8708C70.6227 57.2053 71.4429 57.5452 72.2572 57.8825C74.0426 58.6223 75.7994 59.3502 77.5599 59.984C80.1083 60.9014 82.4417 61.5343 84.4974 61.6481C86.5164 61.7598 88.1355 61.3661 89.4413 60.3617C90.3511 59.6619 91.6559 59.8321 92.3557 60.7418C93.0555 61.6516 92.8853 62.9564 91.9755 63.6562C89.6616 65.4361 86.9648 65.9474 84.2677 65.7981C81.6074 65.6509 78.8243 64.8567 76.152 63.8947C74.2968 63.2268 72.387 62.4357 70.557 61.6777C69.7656 61.3499 68.9892 61.0283 68.2386 60.7255C65.6787 59.6928 63.3743 58.859 61.3674 58.4827Z" fill="white"/>
</g>
<defs>
<clipPath id="clip0_2135_1435">
<rect width="92.8507" height="92.8507" fill="white"/>
</clipPath>
</defs>
</svg>
