<svg width="25" height="25" viewBox="0 0 25 25" fill="none" xmlns="http://www.w3.org/2000/svg">
<path d="M9.15074 8.44051C9.15074 5.67322 6.55452 3.90215 6.44383 3.83171C6.27742 3.71923 6.08116 3.65912 5.8803 3.65912C5.67945 3.65912 5.48319 3.71923 5.31678 3.83171C5.20609 3.91221 2.60986 5.67322 2.60986 8.44051C2.60986 9.30789 2.95443 10.1397 3.56775 10.7531C4.18108 11.3664 5.01293 11.711 5.8803 11.711C6.74768 11.711 7.57953 11.3664 8.19285 10.7531C8.80618 10.1397 9.15074 9.30789 9.15074 8.44051ZM5.8803 9.69837C5.5467 9.69837 5.22676 9.56585 4.99086 9.32996C4.75497 9.09406 4.62244 8.77412 4.62244 8.44051C4.70525 7.48643 5.15643 6.60212 5.8803 5.9751C6.60849 6.59872 7.06064 7.48492 7.13817 8.44051C7.13817 8.77412 7.00564 9.09406 6.76975 9.32996C6.53385 9.56585 6.21391 9.69837 5.8803 9.69837ZM11.9784 10.8757C11.812 10.7633 11.6158 10.7031 11.4149 10.7031C11.214 10.7031 11.0178 10.7633 10.8514 10.8757C10.6803 10.9965 6.63502 13.794 6.63502 18.0003C6.63502 19.268 7.13861 20.4837 8.03501 21.3801C8.93141 22.2765 10.1472 22.7801 11.4149 22.7801C12.6826 22.7801 13.8984 22.2765 14.7948 21.3801C15.6912 20.4837 16.1948 19.268 16.1948 18.0003C16.1948 13.7235 12.1696 10.9864 11.9784 10.8757ZM11.4149 20.7676C11.0515 20.7676 10.6916 20.696 10.3559 20.5569C10.0202 20.4178 9.71509 20.214 9.45812 19.957C9.20115 19.7001 8.99732 19.395 8.85825 19.0593C8.71918 18.7235 8.6476 18.3637 8.6476 18.0003C8.6476 15.6757 10.469 13.804 11.425 12.9688C12.3709 13.7638 14.1822 15.6154 14.1822 18.0003C14.1822 18.3637 14.1106 18.7235 13.9715 19.0593C13.8325 19.395 13.6286 19.7001 13.3717 19.957C13.1147 20.214 12.8096 20.4178 12.4739 20.5569C12.1382 20.696 11.7783 20.7676 11.4149 20.7676ZM18.2677 2.82542C18.1013 2.71294 17.9051 2.65283 17.7042 2.65283C17.5033 2.65283 17.3071 2.71294 17.1407 2.82542C16.9998 2.92605 13.679 5.22039 13.679 8.69208C13.679 9.75962 14.1031 10.7834 14.858 11.5383C15.6129 12.2932 16.6367 12.7172 17.7042 12.7172C18.7717 12.7172 19.7956 12.2932 20.5504 11.5383C21.3053 10.7834 21.7294 9.75962 21.7294 8.69208C21.7294 5.18014 18.4086 2.91598 18.2677 2.82542ZM17.7042 10.7047C17.1704 10.7047 16.6585 10.4926 16.2811 10.1152C15.9037 9.73776 15.6916 9.22585 15.6916 8.69208C15.7606 7.96546 15.9742 7.25997 16.3198 6.6171C16.6654 5.97423 17.1361 5.40697 17.7042 4.94869C18.2744 5.40502 18.7466 5.9718 19.0924 6.61505C19.4383 7.2583 19.6506 7.96477 19.7168 8.69208C19.7168 9.22585 19.5047 9.73776 19.1273 10.1152C18.7499 10.4926 18.238 10.7047 17.7042 10.7047Z" fill="black"/>
</svg>
