<svg width="26" height="26" viewBox="0 0 26 26" fill="none" xmlns="http://www.w3.org/2000/svg">
<path d="M4.39645 10.7927C4.11622 10.7927 3.84747 10.6814 3.64932 10.4832C3.45116 10.285 3.33984 10.0163 3.33984 9.73607C3.33984 9.45584 3.45116 9.18709 3.64932 8.98894C3.84747 8.79079 4.11622 8.67947 4.39645 8.67947H12.8493C13.4097 8.67947 13.9472 8.45683 14.3435 8.06052C14.7398 7.66422 14.9625 7.12672 14.9625 6.56626C14.9625 6.0058 14.7398 5.4683 14.3435 5.072C13.9472 4.67569 13.4097 4.45305 12.8493 4.45305C12.2681 4.45305 11.7398 4.6855 11.3595 5.07645C11.2633 5.17907 11.1471 5.26087 11.0181 5.31679C10.889 5.37271 10.7499 5.40156 10.6093 5.40156C10.4686 5.40156 10.3295 5.37271 10.2005 5.31679C10.0714 5.26087 9.95525 5.17907 9.85909 5.07645C9.44701 4.66437 9.44701 3.98815 9.85909 3.57607C10.6304 2.81532 11.687 2.33984 12.8493 2.33984C13.9702 2.33984 15.0452 2.78513 15.8378 3.57773C16.6304 4.37034 17.0757 5.44534 17.0757 6.56626C17.0757 7.68717 16.6304 8.76218 15.8378 9.55479C15.0452 10.3474 13.9702 10.7927 12.8493 10.7927H4.39645ZM20.2455 12.9059C20.5257 12.9059 20.7945 12.7946 20.9926 12.5964C21.1908 12.3983 21.3021 12.1295 21.3021 11.8493C21.3021 11.569 21.1908 11.3003 20.9926 11.1021C20.7945 10.904 20.5257 10.7927 20.2455 10.7927C19.9497 10.7927 19.6855 10.9089 19.4953 11.0991C19.3976 11.197 19.2815 11.2748 19.1536 11.3278C19.0258 11.3808 18.8888 11.4081 18.7504 11.4081C18.612 11.4081 18.475 11.3808 18.3472 11.3278C18.2194 11.2748 18.1033 11.197 18.0055 11.0991C17.604 10.687 17.604 10.0214 18.0055 9.60928C18.5761 9.03871 19.3685 8.67947 20.2455 8.67947C21.0862 8.67947 21.8924 9.01343 22.4869 9.60788C23.0814 10.2023 23.4153 11.0086 23.4153 11.8493C23.4153 12.69 23.0814 13.4962 22.4869 14.0907C21.8924 14.6851 21.0862 15.0191 20.2455 15.0191H5.45305C5.17282 15.0191 4.90407 14.9078 4.70592 14.7096C4.50777 14.5115 4.39645 14.2427 4.39645 13.9625C4.39645 13.6823 4.50777 13.4135 4.70592 13.2154C4.90407 13.0172 5.17282 12.9059 5.45305 12.9059H20.2455ZM19.1889 19.2455H4.39645C4.11622 19.2455 3.84747 19.1342 3.64932 18.936C3.45116 18.7379 3.33984 18.4691 3.33984 18.1889C3.33984 17.9087 3.45116 17.6399 3.64932 17.4418C3.84747 17.2436 4.11622 17.1323 4.39645 17.1323H19.1889C20.0296 17.1323 20.8358 17.4663 21.4303 18.0607C22.0248 18.6552 22.3587 19.4614 22.3587 20.3021C22.3587 21.1428 22.0248 21.949 21.4303 22.5435C20.8358 23.138 20.0296 23.4719 19.1889 23.4719C18.3119 23.4719 17.5195 23.1127 16.9489 22.5421C16.5474 22.13 16.5474 21.4644 16.9489 21.0523C17.0467 20.9543 17.1628 20.8766 17.2906 20.8236C17.4184 20.7706 17.5554 20.7433 17.6938 20.7433C17.8322 20.7433 17.9692 20.7706 18.097 20.8236C18.2249 20.8766 18.341 20.9543 18.4387 21.0523C18.6289 21.2425 18.8931 21.3587 19.1889 21.3587C19.4691 21.3587 19.7379 21.2474 19.936 21.0492C20.1342 20.8511 20.2455 20.5823 20.2455 20.3021C20.2455 20.0219 20.1342 19.7531 19.936 19.555C19.7379 19.3568 19.4691 19.2455 19.1889 19.2455Z" fill="black"/>
</svg>
