<svg width="147" height="88" viewBox="0 0 147 88" fill="none" xmlns="http://www.w3.org/2000/svg">
<path d="M130.035 53.9722C129.948 53.9722 129.86 53.9722 129.86 53.9722C131.172 50.8231 131.959 47.4115 131.959 43.8251C131.959 29.6541 120.503 18.1948 106.337 18.1948C101.352 18.1948 96.63 19.6819 92.6948 22.1312C87.3605 9.09742 74.5931 0 59.6395 0C39.8763 0 23.9607 16.008 23.9607 35.6899C23.9607 37.1769 24.0482 38.664 24.2231 40.0636C24.1356 40.0636 24.0482 40.0636 23.9607 40.0636C10.7561 40.0636 0 50.8231 0 64.0318C0 77.2406 10.7561 88 23.9607 88H130.035C139.392 88 147 80.3897 147 71.0298C147 61.5825 139.392 53.9722 130.035 53.9722Z" fill="white"/>
</svg>
